<svg width="68" height="21" viewBox="0 0 68 21" fill="none" xmlns="http://www.w3.org/2000/svg">
<rect y="0.5" width="68" height="20" rx="4" fill="#AF9280"/>
<g clip-path="url(#clip0_83302_202)">
<path d="M15.9392 6.5H14.6044V13.2689H15.9392V6.5Z" fill="white"/>
<path d="M13.0711 6.87876H11.7363V13.6475H13.0711V6.87876Z" fill="white"/>
<path d="M10.203 7.30162H8.86814V14.0716H10.203V7.30162Z" fill="white"/>
<path d="M7.33482 7.72917H6L6.00001 14.5H7.33482L7.33482 7.72917Z" fill="white"/>
<path d="M51.194 10.1063L49.0447 7.71671H47.7882V13.2495H49.1001V9.71946L51.0623 11.8109H51.3047L53.2332 9.71946V13.2495H54.5451V7.71671H53.2886L51.194 10.1063Z" fill="white"/>
<path d="M60.795 7.71671L57.5435 11.3128V7.71671H56.2316V13.2495H57.4335L60.685 9.65338V13.2495H61.9969V7.71671H60.795Z" fill="white"/>
<path d="M40.7222 9.74122C40.7222 10.6221 41.2039 11.316 41.9433 11.607L40.5568 13.2495H42.1625L43.4238 11.7553H44.7886V13.2495H46.1005V7.71671H42.7606C41.5154 7.71671 40.7222 8.56858 40.7222 9.74122ZM44.7895 8.93528V10.5713H43.0039C42.4082 10.5713 42.0886 10.2393 42.0886 9.75251C42.0886 9.26572 42.4194 8.93367 43.0039 8.93367L44.7895 8.93528Z" fill="white"/>
<path d="M34.626 8.82326C34.5457 10.7261 34.1443 11.9543 33.3583 11.9543H33.1616V13.2825L33.3712 13.2938C34.9472 13.3817 35.8183 11.9987 35.9612 8.978H38.0341V13.2495H39.3436V7.71671H34.6702L34.626 8.82326Z" fill="white"/>
<path d="M29.6877 7.6394C27.9134 7.6394 26.6369 8.86765 26.6369 10.4828C26.6369 12.1535 28.0258 13.3382 29.6877 13.3382C31.4187 13.3382 32.7635 12.0874 32.7635 10.4828C32.7635 8.87813 31.4187 7.6394 29.6877 7.6394ZM29.6877 12.01C28.685 12.01 28.0017 11.3572 28.0017 10.4828C28.0017 9.58655 28.6858 8.95147 29.6877 8.95147C30.6897 8.95147 31.3962 9.61557 31.3962 10.4828C31.3962 11.3499 30.6801 12.01 29.6877 12.01Z" fill="white"/>
<path d="M25.2456 7.72714H20.6155L20.5713 8.8337C20.5055 10.4278 20.0896 11.9438 19.3036 11.9656L18.9399 11.9769V14.5L20.263 14.4974V13.2502H24.8594V14.4974H26.1937V11.9656H25.2456V7.72714ZM23.9337 11.9656H21.1341C21.6078 11.2467 21.8615 10.2062 21.9057 8.98924H23.9337V11.9656Z" fill="white"/>
</g>
<defs>
<clipPath id="clip0_83302_202">
<rect width="56" height="8" fill="white" transform="translate(6 6.5)"/>
</clipPath>
</defs>
</svg>
