<svg width="112" height="16" viewBox="0 0 112 16" fill="none" xmlns="http://www.w3.org/2000/svg">
<g clip-path="url(#clip0_65057_7193)">
<path d="M19.8785 0H17.2089V13.5377H19.8785V0Z" fill="#AF9280"/>
<path d="M14.1422 0.757528H11.4726V14.295H14.1422V0.757528Z" fill="#AF9280"/>
<path d="M8.40592 1.60323H5.73629V15.1432H8.40592V1.60323Z" fill="#AF9280"/>
<path d="M2.66964 2.45833H0L1.01725e-05 16H2.66965L2.66964 2.45833Z" fill="#AF9280"/>
<path d="M90.3879 7.21263L86.0894 2.43341H83.5765V13.499H86.2002V6.43893L90.1246 10.6218H90.6095L94.4664 6.43893V13.499H97.0901V2.43341H94.5772L90.3879 7.21263Z" fill="#AF9280"/>
<path d="M109.59 2.43341L103.087 9.62561V2.43341H100.463V13.499H102.867L109.37 6.30675V13.499H111.994V2.43341H109.59Z" fill="#AF9280"/>
<path d="M69.4444 6.48245C69.4444 8.24423 70.4078 9.63206 71.8867 10.2139L69.1136 13.499H72.325L74.8476 10.5105H77.5773V13.499H80.201V2.43341H73.5213C71.0308 2.43341 69.4444 4.13716 69.4444 6.48245ZM77.5789 4.87057V8.14268H74.0078C72.8164 8.14268 72.1773 7.47859 72.1773 6.50501C72.1773 5.53144 72.8389 4.86735 74.0078 4.86735L77.5789 4.87057Z" fill="#AF9280"/>
<path d="M57.2521 4.64652C57.0915 8.45216 56.2886 10.9087 54.7166 10.9087H54.3232V13.565L54.7423 13.5876C57.8943 13.7633 59.6365 10.9973 59.9223 4.956H64.0683V13.499H66.6872V2.43341H57.3404L57.2521 4.64652Z" fill="#AF9280"/>
<path d="M47.3755 2.27881C43.8268 2.27881 41.2738 4.73531 41.2738 7.96551C41.2738 11.3069 44.0516 13.6764 47.3755 13.6764C50.8374 13.6764 53.5269 11.1748 53.5269 7.96551C53.5269 4.75626 50.8374 2.27881 47.3755 2.27881ZM47.3755 11.02C45.3699 11.02 44.0035 9.7144 44.0035 7.96551C44.0035 6.1731 45.3715 4.90295 47.3755 4.90295C49.3794 4.90295 50.7924 6.23113 50.7924 7.96551C50.7924 9.69989 49.3601 11.02 47.3755 11.02Z" fill="#AF9280"/>
<path d="M38.4911 2.45428H29.231L29.1427 4.66739C29.011 7.85569 28.1793 10.8876 26.6073 10.9312L25.8799 10.9537V16L28.5261 15.9947V13.5005H37.7188V15.9947H40.3875V10.9312H38.4911V2.45428ZM35.8674 10.9312H30.2683C31.2157 9.49336 31.7231 7.41242 31.8114 4.97849H35.8674V10.9312Z" fill="#AF9280"/>
</g>
<defs>
<clipPath id="clip0_65057_7193">
<rect width="112" height="16" fill="white"/>
</clipPath>
</defs>
</svg>
