<svg xmlns="http://www.w3.org/2000/svg" width="2613" height="223" fill="none"><path fill="#D2BCAE" d="M209.024 2.205v218.646h-20.976V44.611l-83.564 106.92-83.565-106.92v176.24H0V2.205h12.269l92.215 118.455L197.038 2.205h11.986ZM496.977 2.205l-85.883 142.598v76.048h-20.806v-75.709L304.405 2.205h24.029l72.2 118.681 72.314-118.68h24.029ZM862.897 159.108c0 18.941-7.859 34.547-23.52 46.364C823.998 217.12 805.397 223 783.912 223h-1.809c-21.089 0-39.351-4.58-54.334-13.344-14.926-8.933-25.782-21.203-32.001-36.582l-.905-2.036 14.418-13.4 1.696 4.297c5.032 12.609 13.626 22.73 25.612 30.08 12.099 7.351 27.365 11.026 45.514 11.026h1.809c16.283 0 30.248-4.128 41.499-12.27 11.195-8.029 16.623-18.319 16.623-31.606 0-12.44-3.732-21.769-11.364-28.158-7.803-6.616-20.298-11.082-37.147-13.231l-26.12-3.675c-22.277-2.884-39.125-8.594-49.811-17.02-11.025-8.65-16.623-20.92-16.623-36.525 0-17.867 7.407-32.737 22.164-43.933C737.55 5.598 754.907.057 774.47.057h3.675c15.774 0 30.531 3.223 43.931 9.555 13.513 6.333 24.538 15.549 32.679 27.31l1.583 2.261-14.021 13.175-2.149-2.94c-6.728-9.387-15.661-16.737-26.46-21.77-11.025-5.031-22.898-7.632-35.506-7.632h-3.675c-13.853 0-26.291 3.731-37.034 11.195-10.459 7.18-15.548 16.736-15.548 29.062 0 9.556 3.393 16.737 10.404 21.995 7.35 5.541 19.845 9.499 37.202 11.817l26.008 3.675c22.389 2.884 39.295 9.217 50.376 18.772 11.251 9.838 16.962 24.143 16.962 42.576ZM1094.08 2.205v19.903h-69.48V220.85h-20.87V22.108h-69.483V2.205h159.833ZM1352.69 32.681C1331.04 11.026 1304.46 0 1273.88 0c-15.32 0-29.63 2.77-42.75 8.255-13.17 5.485-25.16 13.627-35.96 24.426-21.54 21.655-32.45 48.117-32.45 78.819 0 30.702 10.91 57.164 32.45 78.819 21.55 21.655 48.06 32.681 78.76 32.681 30.59 0 57.16-11.026 78.82-32.681 21.65-21.655 32.57-48.23 32.57-78.819-.06-30.702-11.03-57.164-32.63-78.819Zm-78.87 170.247c-25.16 0-46.7-8.877-64.06-26.405-17.47-17.472-26.23-39.353-26.23-65.023 0-25.783 8.76-47.608 26.23-65.136 17.36-17.471 38.9-26.405 64.06-26.405 25.05 0 46.59 8.934 64.17 26.405 17.53 17.528 26.41 39.466 26.41 65.136 0 25.67-8.88 47.608-26.24 65.023-17.41 17.584-39.07 26.405-64.34 26.405ZM1618.65 181.385c-9.67-15.096-19.84-25.782-30.3-31.663 14.58-5.089 26.57-12.778 35.9-23.069 11.19-12.269 16.73-27.988 16.73-46.703 0-24.596-9.04-43.933-27.02-57.503-17.64-13.4-40.43-20.242-67.74-20.242h-69.26v218.646h20.87v-63.1h50.2c11.99 0 21.55 1.979 28.56 5.824 6.95 3.845 14.87 12.552 23.46 25.783l20.41 31.493h24.26l-26.07-39.466ZM1497.77 22.108h49.3c21.49 0 39.35 5.032 53.04 14.757 13.62 9.669 20.24 23.691 20.24 43.028 0 19.338-6.62 33.36-20.24 43.142-13.69 9.725-31.61 14.7-53.04 14.7h-49.3V22.108ZM1930.01 22.108v78.027h110.48v19.677h-110.48v80.967h116.19v20.072h-137.05V2.205h137.05v19.903h-116.19ZM2296.89 159.108c0 18.941-7.86 34.547-23.52 46.364-15.38 11.648-33.98 17.528-55.46 17.528h-1.81c-21.09 0-39.35-4.58-54.34-13.344-14.92-8.933-25.78-21.203-32.11-36.582l-.79-2.036 14.41-13.4 1.7 4.297c5.03 12.609 13.63 22.73 25.61 30.08 12.1 7.351 27.37 11.026 45.52 11.026h1.81c16.17 0 30.24-4.128 41.5-12.27 11.19-8.029 16.56-18.319 16.56-31.606 0-12.44-3.67-21.769-11.25-28.158-7.8-6.616-20.3-11.082-37.2-13.231l-26.12-3.675c-22.28-2.884-39.02-8.594-49.76-17.02-11.02-8.65-16.62-20.92-16.62-36.525 0-17.867 7.41-32.737 22.16-43.933C2171.6 5.598 2188.96.057 2208.52.057h3.68c15.77 0 30.53 3.223 43.93 9.555 13.51 6.333 24.53 15.549 32.68 27.31l1.52 2.261-13.96 13.175-2.15-2.94c-6.73-9.387-15.66-16.737-26.46-21.77-11.03-5.031-22.9-7.632-35.51-7.632h-3.67c-13.85 0-26.29 3.731-37.04 11.195-10.46 7.18-15.54 16.736-15.54 29.062 0 9.556 3.39 16.737 10.4 21.995 7.35 5.541 19.79 9.499 37.2 11.817l26.01 3.675c22.39 2.884 39.29 9.217 50.38 18.772 11.19 9.838 16.9 24.143 16.9 42.576ZM2396.68 201.005c2.6 2.487 4.02 5.541 4.02 9.103 0 3.505-1.42 6.559-4.02 9.103-2.66 2.488-5.82 3.732-9.5 3.732-3.67 0-6.89-1.357-9.49-3.732-2.66-2.601-4.02-5.654-4.02-9.103 0-3.562 1.36-6.616 4.02-9.103 5.2-5.033 13.68-5.033 18.99 0ZM2506.76 210.108c0 3.505-1.35 6.559-4.01 9.103-2.6 2.431-5.82 3.732-9.5 3.732-3.56 0-6.78-1.357-9.38-3.732-2.66-2.601-4.02-5.654-4.02-9.103 0-3.562 1.36-6.616 4.02-9.103 5.2-5.033 13.68-5.033 18.88 0 2.71 2.487 4.01 5.541 4.01 9.103ZM2613 210.109c0 3.505-1.36 6.559-4.01 9.103-2.66 2.488-5.83 3.732-9.5 3.732-3.68 0-6.9-1.357-9.5-3.732-2.66-2.601-4.02-5.654-4.02-9.103 0-3.562 1.36-6.616 4.02-9.103 5.2-5.033 13.68-5.033 18.94 0 2.71 2.487 4.07 5.541 4.07 9.103ZM1776.56 1.923h-21.14v218.533h21.14V1.923Z"/></svg>