<svg xmlns="http://www.w3.org/2000/svg" width="478" height="41" fill="none"><path fill="#EDE9DF" d="M38.237.405v40.2H34.4V8.202L19.113 27.86 3.827 8.202v32.403H0V.405h2.244l16.87 21.779L36.043.405h2.193ZM90.912.406l-15.71 26.217v13.982h-3.807v-13.92L55.685.406h4.395l13.208 21.821L86.516.406h4.396ZM157.851 29.253c0 3.482-1.438 6.352-4.303 8.524C150.735 39.92 147.332 41 143.402 41h-.331c-3.858 0-7.198-.842-9.939-2.453-2.731-1.643-4.717-3.899-5.854-6.726l-.166-.375 2.638-2.463.31.79c.92 2.318 2.493 4.179 4.685 5.53 2.214 1.352 5.006 2.027 8.326 2.027h.331c2.979 0 5.533-.759 7.592-2.256 2.048-1.476 3.04-3.368 3.04-5.81 0-2.288-.682-4.003-2.078-5.178-1.428-1.216-3.714-2.037-6.796-2.432l-4.778-.676c-4.075-.53-7.157-1.58-9.112-3.129-2.017-1.59-3.041-3.846-3.041-6.716 0-3.285 1.355-6.019 4.055-8.077C134.921 1.03 138.096.01 141.675.01h.672c2.886 0 5.585.593 8.036 1.757 2.472 1.164 4.489 2.859 5.979 5.021l.289.416-2.565 2.422-.393-.54c-1.231-1.726-2.865-3.078-4.84-4.003a15.427 15.427 0 0 0-6.496-1.403h-.672c-2.534 0-4.809.686-6.774 2.058-1.914 1.32-2.845 3.077-2.845 5.343 0 1.757.621 3.078 1.904 4.044 1.344 1.02 3.63 1.747 6.805 2.173l4.758.676c4.095.53 7.188 1.694 9.215 3.451 2.058 1.809 3.103 4.439 3.103 7.828ZM200.143.406v3.659h-12.711v36.54h-3.816V4.065h-12.712V.405h29.239ZM247.45 6.009C243.489 2.027 238.627 0 233.032 0c-2.803 0-5.42.51-7.819 1.518-2.41 1.008-4.603 2.505-6.578 4.49-3.941 3.982-5.937 8.847-5.937 14.492 0 5.645 1.996 10.51 5.937 14.491 3.941 3.982 8.791 6.009 14.407 6.009 5.596 0 10.457-2.027 14.418-6.009 3.961-3.981 5.958-8.867 5.958-14.491-.011-5.645-2.017-10.51-5.968-14.491Zm-14.428 31.3c-4.603 0-8.543-1.631-11.719-4.854-3.195-3.212-4.799-7.235-4.799-11.955 0-4.74 1.604-8.753 4.799-11.976 3.176-3.212 7.116-4.854 11.719-4.854 4.582 0 8.522 1.642 11.739 4.854 3.206 3.223 4.83 7.256 4.83 11.976 0 4.72-1.624 8.753-4.799 11.955-3.186 3.233-7.147 4.855-11.77 4.855ZM296.102 33.35c-1.769-2.776-3.631-4.741-5.544-5.822 2.668-.936 4.861-2.35 6.567-4.242 2.048-2.256 3.062-5.146 3.062-8.586 0-4.522-1.655-8.078-4.944-10.573-3.227-2.463-7.395-3.721-12.391-3.721h-12.669v40.2h3.816V29.003h9.184c2.193 0 3.941.364 5.224 1.07 1.272.707 2.72 2.308 4.292 4.741l3.733 5.79h4.438l-4.768-7.256ZM273.989 4.064h9.019c3.93 0 7.198.925 9.701 2.713 2.493 1.778 3.703 4.356 3.703 7.911 0 3.555-1.21 6.134-3.703 7.932-2.503 1.788-5.782 2.703-9.701 2.703h-9.019V4.065ZM353.06 4.065V18.41h20.209v3.618H353.06v14.886h21.254v3.69h-25.071V.406h25.071v3.66H353.06ZM420.174 29.253c0 3.482-1.437 6.352-4.302 8.524C413.058 39.92 409.656 41 405.725 41h-.331c-3.857 0-7.198-.842-9.939-2.453-2.73-1.643-4.716-3.899-5.875-6.726l-.144-.375 2.637-2.463.31.79c.921 2.318 2.493 4.179 4.685 5.53 2.214 1.352 5.006 2.027 8.326 2.027h.331c2.958 0 5.534-.759 7.592-2.256 2.048-1.476 3.03-3.368 3.03-5.81 0-2.288-.672-4.003-2.058-5.178-1.427-1.216-3.713-2.037-6.805-2.432l-4.779-.676c-4.075-.53-7.136-1.58-9.101-3.129-2.017-1.59-3.041-3.846-3.041-6.716 0-3.285 1.355-6.019 4.054-8.077C397.255 1.03 400.43.01 404.008.01h.673c2.885 0 5.585.593 8.036 1.757 2.472 1.164 4.489 2.859 5.978 5.021l.279.416-2.554 2.422-.393-.54c-1.231-1.726-2.865-3.078-4.841-4.003a15.422 15.422 0 0 0-6.495-1.403h-.672c-2.534 0-4.81.686-6.775 2.058-1.913 1.32-2.844 3.077-2.844 5.343 0 1.757.621 3.078 1.903 4.044 1.345 1.02 3.62 1.747 6.806 2.173l4.757.676c4.096.53 7.188 1.694 9.216 3.451 2.048 1.809 3.092 4.439 3.092 7.828ZM438.429 36.956c.476.457.735 1.019.735 1.674 0 .644-.259 1.206-.735 1.673a2.447 2.447 0 0 1-1.737.687c-.673 0-1.262-.25-1.738-.687-.486-.478-.734-1.04-.734-1.673 0-.655.248-1.217.734-1.674.952-.925 2.503-.925 3.475 0ZM458.566 38.63c0 .644-.249 1.206-.735 1.673a2.473 2.473 0 0 1-1.737.687 2.51 2.51 0 0 1-1.717-.687c-.486-.478-.734-1.04-.734-1.673 0-.655.248-1.217.734-1.674a2.496 2.496 0 0 1 3.454 0c.497.457.735 1.019.735 1.674ZM478 38.63c0 .644-.248 1.206-.734 1.673a2.447 2.447 0 0 1-1.737.687c-.673 0-1.262-.25-1.738-.687-.486-.478-.734-1.04-.734-1.673 0-.655.248-1.217.734-1.674.952-.925 2.503-.925 3.465 0 .496.457.744 1.019.744 1.674ZM324.989.354h-3.868v40.178h3.868V.354Z"/></svg>